#tb 0: 99561/500000
0,          0,          0,        1,    11300, 0x46c78923
0,          1,          1,        1,    11300, 0x3f2a1175
0,          2,          2,        1,    11300, 0x722de221
0,          3,          3,        1,    11300, 0x01746b88
0,          4,          4,        1,    11300, 0x549587a7
0,          5,          5,        1,    11300, 0x843ab943
0,          6,          6,        1,    11300, 0x62fdee48
0,          7,          7,        1,    11300, 0x74a62867
0,          8,          8,        1,    11300, 0x35a20e2f
0,          9,          9,        1,    11300, 0x4e9ef54d
0,         10,         10,        1,    11300, 0xec7201f5
0,         11,         11,        1,    11300, 0x363bfe27
0,         12,         12,        1,    11300, 0x2aaab418
0,         13,         13,        1,    11300, 0x6a48ab3f
0,         14,         14,        1,    11300, 0x3fecea34
0,         15,         15,        1,    11300, 0xa371f55e
0,         16,         16,        1,    11300, 0xa86b147c
0,         17,         17,        1,    11300, 0x49e9206e
0,         18,         18,        1,    11300, 0x6c9a2155
0,         19,         19,        1,    11300, 0x2c8a4798
0,         20,         20,        1,    11300, 0x3485676c
0,         21,         21,        1,    11300, 0xb0b293f2
0,         22,         22,        1,    11300, 0xe4a9b068
0,         23,         23,        1,    11300, 0xd68d0556
0,         24,         24,        1,    11300, 0xc28e5193
0,         25,         25,        1,    11300, 0xf6948483
0,         26,         26,        1,    11300, 0xf21fbf57
0,         27,         27,        1,    11300, 0x8345eb44
0,         28,         28,        1,    11300, 0x8124f045
0,         29,         29,        1,    11300, 0x18e31f10
0,         30,         30,        1,    11300, 0xdb1943fc
0,         31,         31,        1,    11300, 0x8701699f
0,         32,         32,        1,    11300, 0xd7b18550
0,         33,         33,        1,    11300, 0xa56faccc
0,         34,         34,        1,    11300, 0xf8bcc17c
0,         35,         35,        1,    11300, 0x446acab9
0,         36,         36,        1,    11300, 0x755fd295
0,         37,         37,        1,    11300, 0x92e3d100
0,         38,         38,        1,    11300, 0x54895bb3
0,         39,         39,        1,    11300, 0xd18bffda
0,         40,         40,        1,    11300, 0x480dbe4f
0,         41,         41,        1,    11300, 0x49ea9dbe
0,         42,         42,        1,    11300, 0x00d3a003
0,         43,         43,        1,    11300, 0xda7bbfb2
0,         44,         44,        1,    11300, 0x9700d9c2
0,         45,         45,        1,    11300, 0xa0a9e490
0,         46,         46,        1,    11300, 0x00eb0979
0,         47,         47,        1,    11300, 0x32b04630
0,         48,         48,        1,    11300, 0xdfb73e51
0,         49,         49,        1,    11300, 0x3d8e4f96
0,         50,         50,        1,    11300, 0x2ca83271
0,         51,         51,        1,    11300, 0xb5b123c0
0,         52,         52,        1,    11300, 0x8a570e58
0,         53,         53,        1,    11300, 0xc6c805bc
0,         54,         54,        1,    11300, 0x27caf7a5
0,         55,         55,        1,    11300, 0x5319ecb0
0,         56,         56,        1,    11300, 0x5471e3fd
0,         57,         57,        1,    11300, 0x6d68a6f4
0,         58,         58,        1,    11300, 0x872b7194
0,         59,         59,        1,    11300, 0x007c36bd
0,         60,         60,        1,    11300, 0x2714f1b5
0,         61,         61,        1,    11300, 0x6c8eb50f
0,         62,         62,        1,    11300, 0xf5d57be8
0,         63,         63,        1,    11300, 0x981f412b
0,         64,         64,        1,    11300, 0x1a9804a1
0,         65,         65,        1,    11300, 0xf0c1d24a
0,         66,         66,        1,    11300, 0xa70a9d9b
0,         67,         67,        1,    11300, 0x8c466876
0,         68,         68,        1,    11300, 0xcf2e32df
0,         69,         69,        1,    11300, 0xcb8cfebf
0,         70,         70,        1,    11300, 0xb961ca99
0,         71,         71,        1,    11300, 0x666d9619
0,         72,         72,        1,    11300, 0x84bf5b55
0,         73,         73,        1,    11300, 0xbfa22ccc
0,         74,         74,        1,    11300, 0xcde41849
0,         75,         75,        1,    11300, 0x71372dcd
0,         76,         76,        1,    11300, 0x13402cfd
0,         77,         77,        1,    11300, 0xdebdd321
0,         78,         78,        1,    11300, 0xdda66de1
0,         79,         79,        1,    11300, 0x7f4bb682
0,         80,         80,        1,    11300, 0xf67fd528
0,         81,         81,        1,    11300, 0xe739ff8c
0,         82,         82,        1,    11300, 0x2e131774
0,         83,         83,        1,    11300, 0xfa942811
0,         84,         84,        1,    11300, 0x0cd93ac2
0,         85,         85,        1,    11300, 0xd0445e0e
0,         86,         86,        1,    11300, 0x3f3497c7
0,         87,         87,        1,    11300, 0x11b5bd2c
0,         88,         88,        1,    11300, 0xccd5e62a
0,         89,         89,        1,    11300, 0xa9d4fcb5
0,         90,         90,        1,    11300, 0x34aa1a03
0,         91,         91,        1,    11300, 0x1ce6299e
0,         92,         92,        1,    11300, 0x661c2745
0,         93,         93,        1,    11300, 0x27d8a8b3
0,         94,         94,        1,    11300, 0x9eb07467
0,         95,         95,        1,    11300, 0x128374d2
0,         96,         96,        1,    11300, 0x05c36ff5
0,         97,         97,        1,    11300, 0x8a136bde
0,         98,         98,        1,    11300, 0x15c47c99
0,         99,         99,        1,    11300, 0xcc4a93f4
0,        100,        100,        1,    11300, 0x19529b2b
0,        101,        101,        1,    11300, 0x9943c076
0,        102,        102,        1,    11300, 0xf898e583
0,        103,        103,        1,    11300, 0x40f71f94
0,        104,        104,        1,    11300, 0x5b604afb
0,        105,        105,        1,    11300, 0x8c176af4
0,        106,        106,        1,    11300, 0x0f1a6216
0,        107,        107,        1,    11300, 0x38bbd13d
0,        108,        108,        1,    11300, 0x90c8d1fc
0,        109,        109,        1,    11300, 0x253000d7
0,        110,        110,        1,    11300, 0xb94b03b1
0,        111,        111,        1,    11300, 0xbc872268
0,        112,        112,        1,    11300, 0xe77adb8c
0,        113,        113,        1,    11300, 0xa38936b7
0,        114,        114,        1,    11300, 0xd6153632
0,        115,        115,        1,    11300, 0x1ae633cc
0,        116,        116,        1,    11300, 0xb90c286e
0,        117,        117,        1,    11300, 0xbc7e333d
0,        118,        118,        1,    11300, 0x1b5421f8
0,        119,        119,        1,    11300, 0xdde6506d
0,        120,        120,        1,    11300, 0xd3eb757e
0,        121,        121,        1,    11300, 0x5ad1929c
0,        122,        122,        1,    11300, 0x4f6aa47d
0,        123,        123,        1,    11300, 0xab3caf55
0,        124,        124,        1,    11300, 0x5ff9b39a
0,        125,        125,        1,    11300, 0x1454e12e
0,        126,        126,        1,    11300, 0xf18216e8
0,        127,        127,        1,    11300, 0x62144880
0,        128,        128,        1,    11300, 0x54284241
0,        129,        129,        1,    11300, 0x8e8c7228
0,        130,        130,        1,    11300, 0xb498d06e
0,        131,        131,        1,    11300, 0x7b1e6be1
0,        132,        132,        1,    11300, 0x5e5ea1f4
0,        133,        133,        1,    11300, 0x41eda28e
0,        134,        134,        1,    11300, 0x7ba6aa92
0,        135,        135,        1,    11300, 0xa8a8b1c7
0,        136,        136,        1,    11300, 0x0d30bd08
0,        137,        137,        1,    11300, 0xc610bf16
0,        138,        138,        1,    11300, 0xed57c075
0,        139,        139,        1,    11300, 0xb86dbfea
0,        140,        140,        1,    11300, 0x0970c03d
0,        141,        141,        1,    11300, 0x743ac2ac
0,        142,        142,        1,    11300, 0x0a44c816
0,        143,        143,        1,    11300, 0xe32acd6b
0,        144,        144,        1,    11300, 0x209bcdab
0,        145,        145,        1,    11300, 0x3cd0d105
0,        146,        146,        1,    11300, 0xc0bcd330
0,        147,        147,        1,    11300, 0x4785d6dc
0,        148,        148,        1,    11300, 0xe85f9c90
0,        149,        149,        1,    11300, 0xd4a72850
0,        150,        150,        1,    11300, 0x04766e41
0,        151,        151,        1,    11300, 0x04766e41
